<svg width="87" height="32" viewBox="0 0 87 32" fill="none" xmlns="http://www.w3.org/2000/svg">
<g clip-path="url(#clip0_303_6056)">
<path fill-rule="evenodd" clip-rule="evenodd" d="M53.9701 26.9762C49.0066 30.6356 41.8108 32.5876 35.6163 32.5876C26.9294 32.5876 19.11 29.3748 13.1936 24.0315C12.7292 23.6112 13.1452 23.0388 13.7027 23.3659C20.0878 27.0807 27.9819 29.315 36.1362 29.315C41.6359 29.315 47.686 28.1772 53.2491 25.8164C54.0889 25.4594 54.7922 26.3668 53.9701 26.9762Z" fill="#8F95B3"/>
<path fill-rule="evenodd" clip-rule="evenodd" d="M56.0344 24.6151C55.4016 23.8044 51.8396 24.2318 50.241 24.4216C49.7539 24.4807 49.6792 24.0568 50.118 23.7518C52.9553 21.755 57.611 22.3317 58.1536 23.0008C58.6968 23.6743 58.0128 28.3413 55.3461 30.5678C54.9372 30.9098 54.5468 30.7278 54.7288 30.2741C55.3276 28.7793 56.6702 25.4293 56.0344 24.6151Z" fill="#8F95B3"/>
<path fill-rule="evenodd" clip-rule="evenodd" d="M50.3532 9.65526V7.71393C50.3532 7.42024 50.5758 7.22326 50.8439 7.22326H59.5337C59.8124 7.22326 60.0357 7.42451 60.0357 7.71393V9.37651C60.0322 9.65526 59.7982 10.0193 59.3815 10.5961L54.878 17.0252C56.5513 16.984 58.3177 17.2336 59.8345 18.0883C60.1772 18.2818 60.2704 18.5648 60.2967 18.8435V20.915C60.2967 21.1973 59.9838 21.528 59.6567 21.3573C56.9829 19.9557 53.4316 19.8028 50.4763 21.3715C50.1748 21.5351 49.8583 21.208 49.8583 20.9257V18.9587C49.8583 18.643 49.8619 18.1033 50.1783 17.624L55.395 10.1424H50.8553C50.5758 10.1424 50.3532 9.94539 50.3532 9.65526ZM18.6533 21.7662H16.0094C15.8899 21.7603 15.7765 21.7117 15.6899 21.6292C15.6032 21.5467 15.549 21.4358 15.5372 21.3168V7.74735C15.5372 7.47571 15.7641 7.26024 16.0464 7.26024H18.5118C18.6335 7.26411 18.7495 7.31241 18.8379 7.39601C18.9264 7.4796 18.9811 7.5927 18.9918 7.71393V9.48744H19.0402C19.683 7.77366 20.8919 6.97366 22.5204 6.97366C24.1751 6.97366 25.2084 7.77295 25.9529 9.48744C26.5922 7.77366 28.0464 6.97366 29.6044 6.97366C30.7124 6.97366 31.9248 7.43091 32.6644 8.45775C33.5013 9.59908 33.33 11.2574 33.33 12.7116L33.3264 21.2748C33.3264 21.5465 33.0989 21.7655 32.8165 21.7655H30.1769C29.9131 21.747 29.7004 21.5351 29.7004 21.2748V14.0841C29.7004 13.5116 29.7531 12.0837 29.6265 11.5404C29.4295 10.6302 28.8379 10.3728 28.072 10.3728C27.432 10.3728 26.7636 10.8009 26.4919 11.485C26.2203 12.169 26.2466 13.3146 26.2466 14.0841V21.2755C26.2466 21.5472 26.019 21.7662 25.7367 21.7662H23.0971C22.9702 21.7603 22.8503 21.7062 22.7618 21.6151C22.6733 21.524 22.6228 21.4025 22.6206 21.2755L22.6171 14.0841C22.6171 12.5708 22.866 10.3436 20.9886 10.3436C19.0885 10.3436 19.1625 12.5146 19.1625 14.0841V21.2755C19.1625 21.5472 18.9356 21.7662 18.6533 21.7662ZM67.5173 6.97437C71.4405 6.97437 73.5632 10.3436 73.5632 14.6266C73.5632 18.7653 71.2165 22.0492 67.5173 22.0492C63.6652 22.0492 61.5675 18.68 61.5675 14.4823C61.5675 10.2583 63.6908 6.97437 67.5173 6.97437ZM67.5394 9.74486C65.5909 9.74486 65.4686 12.3994 65.4686 14.0542C65.4686 15.7125 65.4423 19.2524 67.5173 19.2524C69.566 19.2524 69.6628 16.3966 69.6628 14.6565C69.6628 13.5116 69.6144 12.1427 69.2688 11.0576C68.9716 10.1125 68.3799 9.74486 67.5394 9.74486ZM78.6505 21.7662H76.018C75.7534 21.7477 75.5415 21.5358 75.5415 21.2755L75.5379 7.70326C75.56 7.45437 75.7797 7.26095 76.0471 7.26095H78.4976C78.6067 7.26459 78.7117 7.30349 78.7968 7.37183C78.8819 7.44016 78.9426 7.53424 78.9698 7.63997V9.71499H79.0181C79.7584 7.85899 80.7959 6.97437 82.6213 6.97437C83.8075 6.97437 84.9644 7.40175 85.7076 8.57366C86.3995 9.65882 86.3995 11.4849 86.3995 12.7977V21.3388C86.3696 21.577 86.1506 21.7662 85.8903 21.7662H83.2386C82.9975 21.7477 82.7963 21.5692 82.7707 21.3388V13.9689C82.7707 12.4855 82.9413 10.3137 81.1159 10.3137C80.4724 10.3137 79.8814 10.7447 79.587 11.3996C79.2158 12.2288 79.1675 13.0544 79.1675 13.9689V21.2755C79.1626 21.4087 79.1058 21.5347 79.0091 21.6264C78.9125 21.7181 78.7837 21.7683 78.6505 21.7662ZM43.4256 15.2851C43.4256 16.3148 43.4519 17.1738 42.9314 18.089C42.5111 18.8329 41.842 19.2901 41.1017 19.2901C40.0862 19.2901 39.4917 18.5164 39.4917 17.3751C39.4917 15.1209 41.5113 14.7127 43.4256 14.7127V15.2851ZM46.0923 21.7292C46.0068 21.8022 45.9011 21.8474 45.7893 21.8587C45.6774 21.8701 45.5648 21.8469 45.4665 21.7925C44.5897 21.0636 44.4297 20.7258 43.9497 20.0297C42.4997 21.5095 41.47 21.9525 39.592 21.9525C37.3648 21.9525 35.6354 20.5801 35.6354 17.8323C35.6354 15.6869 36.7959 14.2256 38.4542 13.5116C39.8892 12.8787 41.8939 12.7678 43.4256 12.5929V12.2515C43.4256 11.6222 43.474 10.8791 43.102 10.3358C42.782 9.84868 42.1648 9.64815 41.6187 9.64815C40.611 9.64815 39.7143 10.1651 39.4953 11.2354C39.4505 11.4736 39.2756 11.7082 39.0345 11.7189L36.4724 11.4437C36.2569 11.3953 36.0151 11.2211 36.0777 10.8898C36.6665 7.78148 39.4768 6.84424 41.9906 6.84424C43.277 6.84424 44.9573 7.18628 45.9728 8.1605C47.2599 9.36228 47.1369 10.9644 47.1369 12.7081V16.8282C47.1369 18.0663 47.6496 18.6096 48.1332 19.2787C48.3003 19.517 48.338 19.8028 48.1218 19.9813C47.4392 20.5582 46.7636 21.1433 46.0951 21.7363L46.0916 21.7292H46.0923ZM8.76605 15.2851C8.76605 16.3148 8.79236 17.1738 8.27112 18.089C7.85156 18.8329 7.18596 19.2901 6.44214 19.2901C5.42667 19.2901 4.83503 18.5164 4.83503 17.3751C4.83503 15.1209 6.85458 14.7127 8.76605 14.7127V15.2851ZM11.4327 21.7292C11.3473 21.8022 11.2416 21.8474 11.1297 21.8587C11.0179 21.8701 10.9053 21.8469 10.8069 21.7925C9.93014 21.0636 9.7737 20.7258 9.29014 20.0297C7.83947 21.5095 6.81405 21.9525 4.93245 21.9525C2.70881 21.9525 0.97583 20.5801 0.97583 17.8323C0.97583 15.6869 2.13992 14.2256 3.79467 13.5116C5.2297 12.8787 7.23361 12.7678 8.76534 12.5929V12.2515C8.76534 11.6222 8.81441 10.8791 8.44605 10.3358C8.1225 9.84868 7.50525 9.64815 6.96267 9.64815C5.95503 9.64815 5.05476 10.1651 4.83574 11.2354C4.79094 11.4736 4.61601 11.7082 4.3785 11.7189L1.81281 11.4437C1.59663 11.3953 1.35912 11.2211 1.41814 10.8905C2.00979 7.78148 4.81725 6.84424 7.33032 6.84424C8.61743 6.84424 10.2978 7.18628 11.3125 8.1605C12.5997 9.36228 12.4773 10.9644 12.4773 12.7081V16.8282C12.4773 18.0663 12.9901 18.6096 13.4729 19.2787C13.6443 19.517 13.682 19.8028 13.4658 19.9813C12.7832 20.5582 12.1076 21.1433 11.4391 21.7363L11.432 21.7292" fill="#8F95B3"/>
</g>
<defs>
<clipPath id="clip0_303_6056">
<rect width="85.3333" height="32" fill="white" transform="translate(0.97583)"/>
</clipPath>
</defs>
</svg>
