<svg width="87" height="32" viewBox="0 0 87 32" fill="none" xmlns="http://www.w3.org/2000/svg">
<g clip-path="url(#clip0_303_6072)">
<path d="M13.3167 2.84445C6.22694 2.84445 0.479736 8.5753 0.479736 15.6445C0.479736 22.7143 6.22694 28.4445 13.3167 28.4445C20.4065 28.4445 26.1537 22.7143 26.1537 15.6445C26.1537 8.57601 20.4065 2.84445 13.3167 2.84445ZM19.2033 21.3056C19.0924 21.4866 18.9141 21.6162 18.7077 21.6658C18.5012 21.7154 18.2836 21.681 18.1025 21.5701C15.0888 19.7348 11.295 19.3188 6.8264 20.3371C6.61972 20.3841 6.40283 20.3472 6.22328 20.2346C6.04372 20.122 5.91615 19.9427 5.86854 19.7362C5.845 19.6339 5.8419 19.528 5.85943 19.4245C5.87695 19.3211 5.91475 19.2221 5.97066 19.1333C6.02656 19.0444 6.09947 18.9676 6.18519 18.907C6.27091 18.8465 6.36774 18.8035 6.47014 18.7805C11.3604 17.6669 15.5546 18.1461 18.938 20.2084C19.0277 20.2628 19.1057 20.3345 19.1676 20.4192C19.2294 20.5038 19.274 20.5999 19.2986 20.7019C19.3233 20.8038 19.3275 20.9096 19.3112 21.0133C19.2948 21.1169 19.2582 21.2162 19.2033 21.3056ZM20.7749 17.8212C20.6355 18.0469 20.4124 18.2082 20.1544 18.2698C19.8963 18.3314 19.6244 18.2882 19.3981 18.1497C15.9478 16.0349 10.6877 15.4219 6.60667 16.6578C6.35272 16.7347 6.07862 16.7079 5.84443 16.5831C5.61023 16.4584 5.43505 16.2459 5.35725 15.9922C5.28091 15.7386 5.30835 15.4651 5.43356 15.2318C5.55876 14.9984 5.77149 14.8243 6.02498 14.7477C10.687 13.3376 16.4826 14.0203 20.4449 16.4487C20.5569 16.5169 20.6544 16.6066 20.7317 16.7126C20.8089 16.8186 20.8645 16.9388 20.8952 17.0664C20.9258 17.1939 20.931 17.3262 20.9103 17.4558C20.8897 17.5853 20.8436 17.7095 20.7749 17.8212ZM20.91 14.1909C16.772 11.7412 9.94605 11.5157 5.99654 12.7111C5.6927 12.8035 5.36461 12.7715 5.08442 12.622C4.80423 12.4725 4.59491 12.2178 4.50249 11.914C4.41008 11.6101 4.44215 11.282 4.59164 11.0018C4.74114 10.7217 4.99582 10.5123 5.29965 10.4199C9.83369 9.04747 17.3715 9.31201 22.1345 12.1323C22.2702 12.2121 22.3887 12.3179 22.4833 12.4437C22.5779 12.5694 22.6468 12.7127 22.6858 12.8651C22.7249 13.0176 22.7334 13.1763 22.7109 13.3321C22.6884 13.4878 22.6354 13.6376 22.5548 13.7728C22.3918 14.046 22.1271 14.2434 21.8188 14.3218C21.5105 14.4002 21.1836 14.3531 20.91 14.1909ZM35.4045 14.6603C33.188 14.1341 32.7941 13.7643 32.7941 12.9863C32.7941 12.2525 33.4867 11.7582 34.5185 11.7582C35.5176 11.7582 36.5082 12.1337 37.5478 12.906C37.5632 12.9174 37.5806 12.9256 37.5992 12.9301C37.6178 12.9346 37.6371 12.9354 37.6559 12.9323C37.6752 12.9296 37.6938 12.923 37.7104 12.9128C37.727 12.9027 37.7414 12.8892 37.7526 12.8733L38.8349 11.3522C38.8563 11.322 38.8653 11.2848 38.8602 11.2482C38.855 11.2116 38.8361 11.1783 38.8072 11.1552C37.5699 10.1661 36.1782 9.68534 34.5505 9.68534C32.1576 9.68534 30.4851 11.1168 30.4851 13.1662C30.4851 15.3636 31.9279 16.1415 34.4204 16.7417C36.5402 17.2288 36.8993 17.6377 36.8993 18.3666C36.8993 19.1751 36.1754 19.6779 35.0106 19.6779C33.7164 19.6779 32.6604 19.242 31.4799 18.2244C31.4506 18.1995 31.413 18.1868 31.3747 18.1888C31.3555 18.1902 31.3368 18.1955 31.3197 18.2043C31.3026 18.2131 31.2874 18.2252 31.2751 18.24L30.0605 19.6793C30.0361 19.7082 30.0239 19.7454 30.0266 19.7832C30.0293 19.8209 30.0465 19.8561 30.0748 19.8813C31.4479 21.1044 33.1375 21.7493 34.9615 21.7493C37.5393 21.7493 39.2061 20.3442 39.2061 18.1696C39.2104 16.3342 38.1082 15.3181 35.4088 14.6631L35.4045 14.661V14.6603ZM45.0401 12.4814C43.9229 12.4814 43.0063 12.9202 42.249 13.8197V12.8071C42.2491 12.7881 42.2454 12.7693 42.2382 12.7517C42.231 12.7341 42.2204 12.7181 42.207 12.7046C42.1935 12.6911 42.1776 12.6804 42.16 12.6731C42.1425 12.6658 42.1236 12.6621 42.1046 12.6621H40.1192C40.1003 12.6621 40.0815 12.666 40.064 12.6733C40.0465 12.6807 40.0307 12.6914 40.0173 12.7048C40.004 12.7183 39.9934 12.7343 39.9863 12.7518C39.9791 12.7694 39.9755 12.7882 39.9756 12.8071V24.0569C39.9756 24.1365 40.0396 24.2027 40.1192 24.2027H42.1046C42.1237 24.2026 42.1425 24.1987 42.1601 24.1914C42.1777 24.184 42.1936 24.1732 42.207 24.1597C42.2204 24.1461 42.231 24.1301 42.2382 24.1125C42.2454 24.0948 42.2491 24.0759 42.249 24.0569V20.5063C43.0056 21.3518 43.9229 21.7657 45.0401 21.7657C47.1165 21.7657 49.22 20.1714 49.22 17.1243C49.2236 14.0757 47.1201 12.4807 45.0415 12.4807H45.0401V12.4814ZM46.9117 17.1243C46.9117 18.6752 45.9539 19.7589 44.58 19.7589C43.2239 19.7589 42.1999 18.6261 42.1999 17.1243C42.1999 15.6217 43.2239 14.4889 44.58 14.4889C45.9311 14.4889 46.9117 15.5968 46.9117 17.1236V17.1243ZM54.6081 12.4807C51.9336 12.4807 49.838 14.5351 49.838 17.157C49.838 19.7511 51.9194 21.7828 54.5761 21.7828C57.2598 21.7828 59.3619 19.7362 59.3619 17.1243C59.3619 14.5209 57.2741 12.4814 54.6081 12.4814V12.4807ZM54.6081 19.7746C53.1859 19.7746 52.1121 18.634 52.1121 17.1229C52.1121 15.6053 53.1489 14.5045 54.5761 14.5045C56.0076 14.5045 57.0863 15.6445 57.0863 17.157C57.0863 18.6738 56.0445 19.7739 54.6081 19.7739V19.7746ZM65.0735 12.6621H62.889V10.4363C62.8892 10.4172 62.8856 10.3983 62.8784 10.3806C62.8712 10.3629 62.8606 10.3468 62.8472 10.3333C62.8338 10.3197 62.8178 10.309 62.8002 10.3016C62.7826 10.2943 62.7637 10.2905 62.7446 10.2905H60.7606C60.7221 10.2905 60.6851 10.3058 60.6578 10.3329C60.6305 10.3601 60.615 10.397 60.6149 10.4356V12.6621H59.662C59.6429 12.662 59.624 12.6656 59.6063 12.6729C59.5887 12.6802 59.5727 12.6908 59.5592 12.7043C59.5457 12.7178 59.535 12.7338 59.5278 12.7515C59.5205 12.7691 59.5168 12.788 59.5169 12.8071V14.5081C59.5169 14.5877 59.5816 14.6532 59.6613 14.6532H60.6141V19.0549C60.6141 20.832 61.5023 21.7337 63.2545 21.7337C63.9656 21.7337 64.5558 21.5872 65.1119 21.2722C65.1344 21.26 65.1532 21.2419 65.1662 21.2198C65.1792 21.1978 65.186 21.1726 65.1859 21.147V19.5264C65.1857 19.5018 65.1793 19.4777 65.1673 19.4563C65.1552 19.4349 65.1379 19.4169 65.1169 19.4041C65.096 19.3909 65.072 19.3834 65.0473 19.3824C65.0225 19.3814 64.998 19.3869 64.9761 19.3984C64.6158 19.5843 64.216 19.6801 63.8106 19.6779C63.1749 19.6779 62.8897 19.3892 62.8897 18.7442V14.6539H65.0742C65.0932 14.6538 65.1119 14.65 65.1294 14.6426C65.1469 14.6353 65.1628 14.6246 65.1761 14.6111C65.1894 14.5976 65.2 14.5817 65.2072 14.5641C65.2143 14.5466 65.218 14.5278 65.2179 14.5088V12.8071C65.2185 12.7882 65.2152 12.7693 65.2083 12.7516C65.2014 12.7339 65.191 12.7178 65.1777 12.7043C65.1644 12.6907 65.1485 12.68 65.131 12.6727C65.1134 12.6655 65.0946 12.6619 65.0757 12.6621H65.0742H65.0735ZM72.6824 12.6706V12.3975C72.6824 11.5925 72.9917 11.2341 73.6851 11.2341C74.0989 11.2341 74.4317 11.3159 74.8037 11.4404C74.8255 11.4476 74.8488 11.4495 74.8716 11.446C74.8943 11.4424 74.9159 11.4335 74.9345 11.4199C74.9531 11.4064 74.9683 11.3886 74.9787 11.368C74.989 11.3475 74.9944 11.3247 74.9942 11.3017V9.63414C74.9945 9.60294 74.9846 9.5725 74.966 9.54746C74.9474 9.52242 74.9211 9.50416 74.8911 9.49547C74.3568 9.33277 73.8006 9.25314 73.2421 9.25938C71.4102 9.25938 70.4403 10.2884 70.4403 12.2347V12.6535H69.486C69.4475 12.6537 69.4108 12.669 69.3836 12.6962C69.3564 12.7234 69.3411 12.7602 69.3409 12.7986V14.5081C69.3409 14.5877 69.4063 14.6532 69.486 14.6532H70.4396V21.44C70.4396 21.5211 70.5057 21.5858 70.5853 21.5858H72.5686C72.6504 21.5858 72.7144 21.5218 72.7144 21.4407V14.6532H74.5676L77.407 21.44C77.0849 22.1525 76.7677 22.2948 76.3354 22.2948C75.9855 22.2948 75.6165 22.1909 75.241 21.9847C75.2053 21.9669 75.1642 21.963 75.1258 21.9741C75.1068 21.9805 75.0894 21.9908 75.0746 22.0042C75.0598 22.0177 75.048 22.034 75.0397 22.0523L74.367 23.5243C74.3518 23.5577 74.3497 23.5956 74.3613 23.6305C74.373 23.6653 74.3974 23.6944 74.4296 23.712C75.1322 24.091 75.7651 24.2525 76.548 24.2525C78.0136 24.2525 78.825 23.5712 79.5375 21.7401L82.98 12.869C82.9892 12.847 82.9926 12.8231 82.99 12.7995C82.9874 12.7759 82.9788 12.7533 82.9651 12.7339C82.952 12.7146 82.9344 12.6988 82.9139 12.6879C82.8933 12.6769 82.8703 12.6713 82.847 12.6713H80.7805C80.7503 12.6712 80.7207 12.6805 80.696 12.698C80.6713 12.7155 80.6526 12.7402 80.6426 12.7687L78.5256 18.7961L76.2081 12.7645C76.1976 12.7371 76.1791 12.7136 76.155 12.6969C76.1309 12.6803 76.1023 12.6714 76.073 12.6713H72.6824V12.6706ZM68.2707 12.6621H66.286C66.2474 12.6621 66.2104 12.6773 66.1831 12.7045C66.1558 12.7317 66.1404 12.7686 66.1402 12.8071V21.44C66.1402 21.5211 66.2063 21.5858 66.286 21.5858H68.2707C68.3503 21.5858 68.4165 21.5218 68.4165 21.4407V12.8071C68.4165 12.788 68.4127 12.7691 68.4053 12.7514C68.398 12.7338 68.3873 12.7178 68.3737 12.7043C68.3602 12.6908 68.3441 12.6801 68.3264 12.6729C68.3087 12.6656 68.2898 12.662 68.2707 12.6621ZM67.2893 8.73103C67.1027 8.73066 66.9178 8.76706 66.7452 8.83816C66.5727 8.90926 66.4158 9.01367 66.2836 9.14541C66.1514 9.27716 66.0464 9.43366 65.9747 9.60598C65.903 9.7783 65.866 9.96305 65.8657 10.1497C65.8664 10.5268 66.0169 10.8881 66.284 11.1543C66.5511 11.4204 66.913 11.5696 67.2901 11.5691C68.0758 11.5691 68.7123 10.9341 68.7123 10.1497C68.7117 9.773 68.5616 9.41195 68.2949 9.14591C68.0282 8.87988 67.6668 8.73065 67.2901 8.73103H67.2893ZM84.6753 15.4382C84.492 15.4391 84.3103 15.4036 84.1408 15.334C83.9712 15.2643 83.8171 15.1618 83.6874 15.0323C83.5576 14.9028 83.4548 14.7489 83.3847 14.5795C83.3147 14.4101 83.2789 14.2285 83.2794 14.0452C83.2794 13.2814 83.8988 12.645 84.6831 12.645C85.4682 12.645 86.0797 13.2743 86.0797 14.0373C86.0797 14.8011 85.4604 15.4382 84.6753 15.4382ZM84.6831 12.7837C84.5173 12.7823 84.3529 12.8141 84.1995 12.8771C84.0462 12.94 83.9069 13.033 83.7899 13.1505C83.6729 13.2679 83.5805 13.4076 83.5181 13.5612C83.4557 13.7148 83.4246 13.8794 83.4266 14.0452C83.4244 14.21 83.4552 14.3736 83.5171 14.5263C83.579 14.6791 83.6708 14.818 83.7871 14.9348C83.9035 15.0515 84.042 15.1439 84.1945 15.2064C84.347 15.269 84.5105 15.3004 84.6753 15.2989C84.8412 15.3003 85.0056 15.2686 85.1591 15.2057C85.3126 15.1427 85.4519 15.0498 85.569 14.9323C85.6861 14.8148 85.7786 14.6751 85.841 14.5215C85.9034 14.3678 85.9345 14.2032 85.9325 14.0373C85.9347 13.8725 85.9039 13.7088 85.842 13.556C85.78 13.4032 85.6881 13.2643 85.5717 13.1475C85.4553 13.0307 85.3168 12.9383 85.1642 12.8759C85.0116 12.8134 84.848 12.782 84.6831 12.7837ZM84.9932 14.1803L85.3885 14.7321H85.0543L84.6988 14.2258H84.3937V14.7321H84.1149V13.2693H84.7677C85.1098 13.2693 85.3331 13.4429 85.3331 13.7358C85.3345 13.9755 85.1951 14.122 84.9946 14.1796H84.9932V14.1803ZM84.7571 13.5211H84.3937V13.9833H84.7571C84.9377 13.9833 85.0465 13.8951 85.0465 13.7522C85.0465 13.6014 84.9377 13.5211 84.7571 13.5211Z" fill="#8F95B3"/>
</g>
<defs>
<clipPath id="clip0_303_6072">
<rect width="86.0444" height="32" fill="white" transform="translate(0.479492)"/>
</clipPath>
</defs>
</svg>
